<?xml version="1.0" encoding="UTF-8"?>
<svg width="700pt" height="700pt" version="1.1" viewBox="0 0 700 700" xmlns="http://www.w3.org/2000/svg" xmlns:xlink="http://www.w3.org/1999/xlink">
    <defs>
        <symbol id="m" overflow="visible">
            <path d="m29.312-1.75c-1.5117 0.78125-3.0898 1.3711-4.7344 1.7656-1.6367 0.40625-3.3398 0.60938-5.1094 0.60938-5.3125 0-9.5273-1.4844-12.641-4.4531-3.1055-2.9688-4.6562-7-4.6562-12.094s1.5508-9.125 4.6562-12.094c3.1133-2.9688 7.3281-4.4531 12.641-4.4531 1.7695 0 3.4727 0.19922 5.1094 0.59375 1.6445 0.39844 3.2227 0.99219 4.7344 1.7812v6.5938c-1.5312-1.0391-3.0391-1.8008-4.5156-2.2812-1.4805-0.48828-3.0391-0.73438-4.6719-0.73438-2.9375 0-5.2461 0.94531-6.9219 2.8281-1.6797 1.875-2.5156 4.4648-2.5156 7.7656 0 3.293 0.83594 5.8828 2.5156 7.7656 1.6758 1.875 3.9844 2.8125 6.9219 2.8125 1.6328 0 3.1914-0.23828 4.6719-0.71875 1.4766-0.48828 2.9844-1.2539 4.5156-2.2969z"/>
        </symbol>
        <symbol id="i" overflow="visible">
            <path d="m21.453-17.406c-0.67969-0.3125-1.3516-0.53906-2.0156-0.6875-0.65625-0.15625-1.3203-0.23438-1.9844-0.23438-1.9688 0-3.4844 0.63281-4.5469 1.8906-1.0547 1.2617-1.5781 3.0703-1.5781 5.4219v11.016h-7.6562v-23.922h7.6562v3.9219c0.97656-1.5625 2.1016-2.7031 3.375-3.4219 1.2812-0.71875 2.8125-1.0781 4.5938-1.0781 0.25 0 0.52344 0.011719 0.82812 0.03125 0.30078 0.023438 0.73438 0.070312 1.2969 0.14062z"/>
        </symbol>
        <symbol id="a" overflow="visible">
            <path d="m27.562-12.031v2.1875h-17.891c0.1875 1.793 0.83203 3.1367 1.9375 4.0312 1.1133 0.89844 2.6719 1.3438 4.6719 1.3438 1.6016 0 3.25-0.23438 4.9375-0.70312 1.6875-0.47656 3.4219-1.2031 5.2031-2.1719v5.8906c-1.8047 0.6875-3.6094 1.2031-5.4219 1.5469-1.8125 0.35156-3.6211 0.53125-5.4219 0.53125-4.3359 0-7.7031-1.0977-10.109-3.2969-2.3984-2.207-3.5938-5.2969-3.5938-9.2656 0-3.9062 1.1758-6.9727 3.5312-9.2031 2.3633-2.2383 5.6094-3.3594 9.7344-3.3594 3.7578 0 6.7695 1.1367 9.0312 3.4062 2.2578 2.2617 3.3906 5.2812 3.3906 9.0625zm-7.8594-2.5312c0-1.457-0.42969-2.6289-1.2812-3.5156-0.84375-0.89453-1.9492-1.3438-3.3125-1.3438-1.4922 0-2.6992 0.41797-3.625 1.25-0.91797 0.83594-1.4922 2.0391-1.7188 3.6094z"/>
        </symbol>
        <symbol id="h" overflow="visible">
            <path d="m14.391-10.766c-1.5938 0-2.793 0.27344-3.5938 0.8125-0.80469 0.54297-1.2031 1.3398-1.2031 2.3906 0 0.96875 0.32031 1.7305 0.96875 2.2812 0.64453 0.54297 1.5469 0.8125 2.7031 0.8125 1.4375 0 2.6445-0.51562 3.625-1.5469 0.98828-1.0312 1.4844-2.3203 1.4844-3.875v-0.875zm11.688-2.8906v13.656h-7.7031v-3.5469c-1.0312 1.4492-2.1875 2.5078-3.4688 3.1719s-2.8398 1-4.6719 1c-2.4805 0-4.4961-0.72266-6.0469-2.1719-1.543-1.4453-2.3125-3.3203-2.3125-5.625 0-2.8125 0.96094-4.8672 2.8906-6.1719 1.9375-1.3125 4.9688-1.9688 9.0938-1.9688h4.5156v-0.60938c0-1.207-0.48047-2.0938-1.4375-2.6562-0.94922-0.5625-2.4375-0.84375-4.4688-0.84375-1.6367 0-3.1562 0.16797-4.5625 0.5-1.4062 0.32422-2.7188 0.8125-3.9375 1.4688v-5.8281c1.6445-0.40625 3.2891-0.70703 4.9375-0.90625 1.6562-0.20703 3.3047-0.3125 4.9531-0.3125 4.3203 0 7.4375 0.85547 9.3438 2.5625 1.9141 1.6992 2.875 4.4609 2.875 8.2812z"/>
        </symbol>
        <symbol id="g" overflow="visible">
            <path d="m12.031-30.719v6.7969h7.875v5.4688h-7.875v10.141c0 1.1172 0.21875 1.8711 0.65625 2.2656 0.4375 0.38672 1.3125 0.57812 2.625 0.57812h3.9375v5.4688h-6.5625c-3.0234 0-5.1641-0.62891-6.4219-1.8906-1.2617-1.2578-1.8906-3.3984-1.8906-6.4219v-10.141h-3.7969v-5.4688h3.7969v-6.7969z"/>
        </symbol>
        <symbol id="f" overflow="visible">
            <path d="m19.953-20.422v-12.812h7.6875v33.234h-7.6875v-3.4531c-1.0547 1.4062-2.2148 2.4375-3.4844 3.0938-1.2734 0.65625-2.7422 0.98438-4.4062 0.98438-2.9492 0-5.3711-1.1719-7.2656-3.5156-1.8867-2.3438-2.8281-5.3594-2.8281-9.0469s0.94141-6.7031 2.8281-9.0469c1.8945-2.3438 4.3164-3.5156 7.2656-3.5156 1.6562 0 3.1172 0.33594 4.3906 1 1.2812 0.65625 2.4453 1.6836 3.5 3.0781zm-5.0469 15.484c1.6445 0 2.8945-0.59766 3.75-1.7969 0.86328-1.1953 1.2969-2.9297 1.2969-5.2031 0-2.2812-0.43359-4.0195-1.2969-5.2188-0.85547-1.1953-2.1055-1.7969-3.75-1.7969-1.625 0-2.8711 0.60156-3.7344 1.7969-0.85547 1.1992-1.2812 2.9375-1.2812 5.2188 0 2.2734 0.42578 4.0078 1.2812 5.2031 0.86328 1.1992 2.1094 1.7969 3.7344 1.7969z"/>
        </symbol>
        <symbol id="e" overflow="visible">
            <path d="m16.406-4.9375c1.6328 0 2.8828-0.59766 3.75-1.7969 0.86328-1.1953 1.2969-2.9297 1.2969-5.2031 0-2.2812-0.43359-4.0195-1.2969-5.2188-0.86719-1.1953-2.1172-1.7969-3.75-1.7969-1.6367 0-2.8906 0.60547-3.7656 1.8125-0.875 1.1992-1.3125 2.9336-1.3125 5.2031 0 2.2617 0.4375 3.9961 1.3125 5.2031 0.875 1.1992 2.1289 1.7969 3.7656 1.7969zm-5.0781-15.484c1.0508-1.3945 2.2188-2.4219 3.5-3.0781 1.2812-0.66406 2.7539-1 4.4219-1 2.9453 0 5.3672 1.1719 7.2656 3.5156 1.8945 2.3438 2.8438 5.3594 2.8438 9.0469s-0.94922 6.7031-2.8438 9.0469c-1.8984 2.3438-4.3203 3.5156-7.2656 3.5156-1.668 0-3.1406-0.33594-4.4219-1s-2.4492-1.6914-3.5-3.0781v3.4531h-7.6562v-33.234h7.6562z"/>
        </symbol>
        <symbol id="d" overflow="visible">
            <path d="m0.53125-23.922h7.6562l6.4219 16.234 5.4688-16.234h7.6562l-10.062 26.188c-1.0117 2.6641-2.1953 4.5234-3.5469 5.5781-1.3438 1.0625-3.1211 1.5938-5.3281 1.5938h-4.4219v-5.0156h2.3906c1.3008 0 2.2422-0.21094 2.8281-0.625 0.59375-0.40625 1.0547-1.1484 1.3906-2.2188l0.20312-0.65625z"/>
        </symbol>
        <symbol id="c" overflow="visible">
            <path d="m25.844-19.953c0.96875-1.4766 2.1172-2.6016 3.4531-3.375 1.332-0.78125 2.7969-1.1719 4.3906-1.1719 2.75 0 4.8438 0.85156 6.2812 2.5469 1.4375 1.6875 2.1562 4.1523 2.1562 7.3906v14.562h-7.6875v-12.469c0.007812-0.1875 0.019531-0.37891 0.03125-0.57812 0.007812-0.19531 0.015625-0.48438 0.015625-0.85938 0-1.6953-0.25-2.9258-0.75-3.6875-0.5-0.75781-1.3086-1.1406-2.4219-1.1406-1.4492 0-2.5703 0.60156-3.3594 1.7969-0.79297 1.1992-1.2031 2.9297-1.2344 5.1875v11.75h-7.6875v-12.469c0-2.6562-0.23047-4.3633-0.6875-5.125-0.44922-0.75781-1.2578-1.1406-2.4219-1.1406-1.4688 0-2.6055 0.60547-3.4062 1.8125-0.79297 1.1992-1.1875 2.918-1.1875 5.1562v11.766h-7.7031v-23.922h7.7031v3.5c0.9375-1.3516 2.0156-2.3672 3.2344-3.0469 1.2188-0.6875 2.5547-1.0312 4.0156-1.0312 1.6562 0 3.1133 0.40234 4.375 1.2031 1.2695 0.79297 2.2344 1.9062 2.8906 3.3438z"/>
        </symbol>
        <symbol id="l" overflow="visible">
            <path d="m15.062-19.031c-1.6992 0-2.9961 0.60938-3.8906 1.8281-0.88672 1.2188-1.3281 2.9766-1.3281 5.2656 0 2.293 0.44141 4.0469 1.3281 5.2656 0.89453 1.2188 2.1914 1.8281 3.8906 1.8281 1.6641 0 2.9375-0.60938 3.8125-1.8281 0.88281-1.2188 1.3281-2.9727 1.3281-5.2656 0-2.2891-0.44531-4.0469-1.3281-5.2656-0.875-1.2188-2.1484-1.8281-3.8125-1.8281zm0-5.4688c4.1133 0 7.3281 1.1094 9.6406 3.3281s3.4688 5.2969 3.4688 9.2344c0 3.9297-1.1562 7.0078-3.4688 9.2344-2.3125 2.2188-5.5273 3.3281-9.6406 3.3281-4.1367 0-7.3711-1.1094-9.7031-3.3281-2.3242-2.2266-3.4844-5.3047-3.4844-9.2344 0-3.9375 1.1602-7.0156 3.4844-9.2344 2.332-2.2188 5.5664-3.3281 9.7031-3.3281z"/>
        </symbol>
        <symbol id="k" overflow="visible">
            <path d="m27.734-14.562v14.562h-7.7031v-11.156c0-2.0625-0.046875-3.4844-0.14062-4.2656-0.085937-0.78125-0.24219-1.3594-0.46875-1.7344-0.30469-0.5-0.71094-0.88281-1.2188-1.1562-0.51172-0.28125-1.0938-0.42188-1.75-0.42188-1.5938 0-2.8516 0.61719-3.7656 1.8438-0.90625 1.2305-1.3594 2.9375-1.3594 5.125v11.766h-7.6562v-23.922h7.6562v3.5c1.1445-1.3945 2.3633-2.4219 3.6562-3.0781 1.3008-0.66406 2.7383-1 4.3125-1 2.7578 0 4.8516 0.85156 6.2812 2.5469 1.4375 1.6875 2.1562 4.1523 2.1562 7.3906z"/>
        </symbol>
        <symbol id="b" overflow="visible">
            <path d="m3.6719-33.234h7.6562v18.094l8.7969-8.7812h8.8906l-11.688 10.969 12.594 12.953h-9.2656l-9.3281-9.9688v9.9688h-7.6562z"/>
        </symbol>
        <symbol id="j" overflow="visible">
            <path d="m3.6719-23.922h7.6562v23.922h-7.6562zm0-9.3125h7.6562v6.2344h-7.6562z"/>
        </symbol>
    </defs>
    <g>
        <path d="m603.75 122.5h-35c-4.832 0-8.75 3.918-8.75 8.75v26.25h-17.5v-43.75c0-1.1133-0.21094-2.2148-0.62109-3.2461l-17.5-43.75c-1.332-3.3164-4.5469-5.4883-8.1211-5.4883-3.5742 0-6.7891 2.1719-8.1172 5.4883l-17.5 43.75c-0.41797 1.0312-0.63672 2.1328-0.64062 3.2461v43.75h-17.5v-131.25c0-2.3203-0.92188-4.5469-2.5625-6.1875s-3.8672-2.5625-6.1875-2.5625h-70c-4.832 0-8.75 3.918-8.75 8.75v131.25h-43.75v-68.582l8.3047-24.902c0.52344-1.5781 0.58594-3.2695 0.18359-4.8828l-8.75-35c-0.97266-3.8984-4.4727-6.6328-8.4883-6.6328h-35c-4.0156 0-7.5156 2.7344-8.4883 6.6328l-8.75 35c-0.40234 1.6133-0.33984 3.3047 0.18359 4.8828l8.3047 24.902v68.582h-43.566c0.32422-9.0469 2.6523-17.906 6.8164-25.945 1.8906-3.5 3.875-6.7461 5.793-9.8945 8.2227-11.219 12.91-24.637 13.457-38.535 0.054688-17.578-6.9961-34.43-19.547-46.734-12.539-12.258-29.422-19.051-46.953-18.891-7.9961 0.14844-15.898 1.7891-23.293 4.8398-2.7305 1.0859-4.7344 3.4766-5.3281 6.3555-0.59766 2.8789 0.29297 5.8672 2.3711 7.9492l27.824 27.781-18.496 18.543-28.176-28.086v-0.003906c-2.0508-2.043-4.9844-2.9414-7.8281-2.3945s-5.2344 2.4648-6.3828 5.125c-3.9844 9.0977-5.8164 18.996-5.3438 28.918 1.6211 13.316 6.6094 26 14.496 36.848l0.875 1.4883c6.3086 9.7734 9.9609 21.023 10.605 32.637h-26.074v-26.25c0-2.3203-0.92188-4.5469-2.5625-6.1875s-3.8672-2.5625-6.1875-2.5625h-35c-4.832 0-8.75 3.918-8.75 8.75v402.5c0 2.3203 0.92188 4.5469 2.5625 6.1875s3.8672 2.5625 6.1875 2.5625h507.5c2.3203 0 4.5469-0.92188 6.1875-2.5625s2.5625-3.8672 2.5625-6.1875v-402.5c0-2.3203-0.92188-4.5469-2.5625-6.1875s-3.8672-2.5625-6.1875-2.5625zm-131.25 175v-87.5h17.5v87.5zm35-182.07 4.1719-10.43h9.1523l4.1758 10.43v182.07h-17.5zm35 94.57h17.5v87.5h-17.5zm17.5-35v17.5h-17.5v-17.5zm-70 0v17.5h-17.5v-17.5zm-35-140v262.5h-52.5v-17.5h26.25v-17.5h-26.25v-17.5h26.25v-17.5h-26.25v-17.5h26.25v-17.5h-26.25v-17.5h26.25v-17.5h-26.25v-17.5h26.25v-17.5h-26.25v-17.5h26.25v-17.5h-26.25v-17.5h26.25v-17.5h-26.25v-17.5zm-90.844 262.5-8.75-17.5h3.3438c2.3203 0 4.5469-0.92188 6.1875-2.5625s2.5625-3.8672 2.5625-6.1875v-35c0-2.3203-0.92188-4.5469-2.5625-6.1875s-3.8672-2.5625-6.1875-2.5625h-17.5v-17.5h43.75v87.5zm-119.16-87.5h43.75v17.5h-17.5c-4.832 0-8.75 3.918-8.75 8.75v35c0 2.3203 0.92188 4.5469 2.5625 6.1875s3.8672 2.5625 6.1875 2.5625h3.3438l-8.75 17.5h-20.844zm51.195 56.656c-1.5938-2.582-4.4102-4.1562-7.4453-4.1562h-8.75v-17.5h70v17.5h-8.75c-3.0312 0-5.8516 1.5664-7.4453 4.1484-1.5977 2.5781-1.7422 5.8008-0.38672 8.5117l11.176 22.34h-59.188l11.219-22.34c1.3398-2.7188 1.1758-5.9336-0.42969-8.5039zm88.805-91.656v17.5h-43.75v-17.5zm-80.668-140h21.332l6.4766 25.898-7.9453 23.836c-0.29687 0.89062-0.44531 1.8242-0.44531 2.7656v140h-17.5v-140c0-0.94141-0.14844-1.875-0.44531-2.7656l-7.9453-23.836zm-15.582 157.5h-43.75v-17.5h43.75zm-130.88-114.69 17.598 17.5c3.2773 3.2695 7.7227 5.1094 12.355 5.1094 4.6289 0 9.0742-1.8398 12.352-5.1094l18.578-18.516c3.2695-3.2773 5.1055-7.7227 5.1055-12.352 0-4.6328-1.8359-9.0781-5.1055-12.355l-16.957-16.922c1.0586-0.097657 2.1172-0.15625 3.168-0.16797 12.879-0.17969 25.289 4.8125 34.461 13.859 9.168 9.043 14.328 21.387 14.328 34.266-0.61719 10.676-4.4141 20.926-10.902 29.426-2.0664 3.3945-4.1992 6.8945-6.2656 10.719-6.043 11.527-9.1602 24.363-9.082 37.379v136.85h-13.648v-148.75h-17.5v148.75h-12.602v-137.73c-0.19922-15.602-4.8008-30.828-13.273-43.934l-0.94531-1.5586v0.003906c-6.2773-8.4102-10.383-18.238-11.953-28.613-0.13281-2.625-0.035156-5.2539 0.28906-7.8594zm-17.867 132.19h26.25v87.5h-26.25zm26.25-35v17.5h-26.25v-17.5zm-61.25-35h17.5v385h-17.5zm35 175h420v210h-420zm455 210h-17.5v-385h17.5z"/>
        <use x="70" y="691.25" xlink:href="#m"/>
        <use x="102.109375" y="691.25" xlink:href="#i"/>
        <use x="123.683594" y="691.25" xlink:href="#a"/>
        <use x="153.355469" y="691.25" xlink:href="#h"/>
        <use x="182.878906" y="691.25" xlink:href="#g"/>
        <use x="203.792969" y="691.25" xlink:href="#a"/>
        <use x="233.464844" y="691.25" xlink:href="#f"/>
        <use x="280.011719" y="691.25" xlink:href="#e"/>
        <use x="311.328125" y="691.25" xlink:href="#d"/>
        <use x="355.078125" y="691.25" xlink:href="#c"/>
        <use x="400.667969" y="691.25" xlink:href="#l"/>
        <use x="430.722656" y="691.25" xlink:href="#k"/>
        <use x="461.871094" y="691.25" xlink:href="#b"/>
        <use x="490.964844" y="691.25" xlink:href="#j"/>
        <use x="505.960938" y="691.25" xlink:href="#b"/>
    </g>
</svg>
