<svg id="Layer_2" data-name="Layer 2" xmlns="http://www.w3.org/2000/svg" viewBox="0 0 300 300"><defs><style>.cls-2{stroke-width:0;fill:#fff}</style></defs><g id="Layer_1-2" data-name="Layer 1"><path style="stroke-width:0;fill:#287c72" d="M0 0h300v300H0z"/><path class="cls-2" d="M110.09 81.24c-6.9 28.5-16.46 72.75-19.82 89.39-4.07-.18-21.59-.18-24.78 0 4.25-16.64 15.4-60.89 21.59-89.39-11.33 0-26.37.35-32.57.71l5.31-22.48c5.66.18 25.49.53 44.25.53s38.76-.35 44.43-.53l-5.31 22.48c-6.02-.35-21.42-.71-33.1-.71ZM200.71 51.68c-3.72 14.34-11.5 47.08-18.05 75.93 13.1-9.74 29.03-23.72 42.66-44.07 5.31.18 20.53.18 25.13-.18v1.59c-12.74 15.93-27.26 28.67-42.13 39.83 7.26 12.57 16.11 28.5 27.26 44.07v1.77c-6.02-.18-16.64-.18-24.78 0-3.19-6.02-11.33-21.06-18.59-34.34-4.6 3.19-9.03 6.2-13.63 9.2-2.12 10.27-4.07 18.94-5.31 25.13-5.84-.35-14.16-.53-22.83 0 6.37-24.43 23.19-95.76 27.61-118.95 6.73.18 15.4.18 22.66 0ZM69.69 211.5c-1.4 1.28-3.18 1.92-5.36 1.92-2.69 0-4.81-.86-6.35-2.59-1.54-1.74-2.31-4.11-2.31-7.13 0-3.27.88-5.79 2.63-7.55 1.52-1.54 3.46-2.31 5.81-2.31 3.15 0 5.45 1.03 6.91 3.1.8 1.16 1.24 2.32 1.29 3.49H68.4c-.25-.9-.58-1.57-.98-2.03-.71-.81-1.76-1.22-3.16-1.22s-2.54.57-3.36 1.72c-.82 1.15-1.23 2.77-1.23 4.87s.43 3.67 1.3 4.72c.87 1.04 1.97 1.57 3.31 1.57s2.42-.45 3.14-1.35c.4-.48.73-1.21.99-2.17h3.87c-.34 2.04-1.2 3.7-2.59 4.98ZM81.13 202.39c-1.46 0-2.43.47-2.93 1.42-.28.53-.42 1.35-.42 2.46v6.61h-3.64v-13.84h3.45v2.41c.56-.92 1.04-1.55 1.46-1.89.68-.57 1.56-.85 2.64-.85h.17c.05 0 .15.01.31.02v3.71c-.23-.03-.43-.04-.61-.05s-.32-.01-.43-.01ZM84 200.55c.96-1.22 2.6-1.83 4.93-1.83 1.51 0 2.86.3 4.04.9 1.18.6 1.76 1.74 1.76 3.4v6.35c0 .44 0 .97.03 1.6.03.47.1.8.22.96.12.17.3.31.53.42v.53h-3.94a3.84 3.84 0 0 1-.23-.79c-.04-.25-.08-.52-.1-.84-.5.54-1.08 1-1.73 1.38-.78.45-1.66.67-2.64.67-1.25 0-2.29-.36-3.1-1.07-.82-.72-1.22-1.73-1.22-3.04 0-1.7.66-2.93 1.97-3.69.72-.42 1.78-.71 3.17-.89l1.23-.15c.67-.08 1.15-.19 1.43-.32.52-.22.77-.56.77-1.03 0-.57-.2-.96-.59-1.17-.39-.21-.97-.32-1.73-.32-.86 0-1.46.21-1.82.63-.25.31-.42.74-.51 1.27h-3.49c.08-1.21.41-2.21 1.02-2.98Zm2.69 9.72c.34.28.75.42 1.24.42.78 0 1.5-.23 2.15-.69.66-.46 1-1.29 1.02-2.5v-1.35c-.23.14-.46.26-.69.35-.23.09-.55.17-.96.25l-.81.15c-.76.14-1.31.3-1.64.5-.56.33-.84.84-.84 1.54 0 .62.17 1.06.52 1.33ZM103.62 194.07v2.95c-.2-.03-.54-.04-1.02-.06-.48-.01-.81.09-.99.32-.18.22-.27.47-.27.74v1.17h2.37v2.55h-2.37v11.16h-3.61v-11.16h-2.02v-2.55h1.98v-.89c0-1.48.25-2.5.75-3.06.53-.83 1.79-1.24 3.8-1.24.23 0 .44 0 .62.02.19.01.44.03.76.06Z"/><path class="cls-2" d="M111.32 210.32v2.7l-1.71.06c-1.71.06-2.88-.24-3.5-.89-.41-.42-.61-1.05-.61-1.92v-8.52h-1.93v-2.58h1.93v-3.86h3.58v3.86h2.25v2.58h-2.25v7.31c0 .57.07.92.22 1.06.14.14.58.21 1.32.21h.35c.12 0 .24 0 .36-.02ZM133.15 194.18v3.31h-5.6v15.4h-3.94v-15.4h-5.62v-3.31h15.16ZM143.96 200.81c1.17 1.46 1.75 3.2 1.75 5.19s-.58 3.77-1.75 5.21-2.94 2.16-5.32 2.16-4.15-.72-5.32-2.16c-1.17-1.44-1.75-3.18-1.75-5.21s.58-3.73 1.75-5.19 2.94-2.2 5.32-2.2 4.15.73 5.32 2.2Zm-5.33.86c-1.06 0-1.87.38-2.44 1.12-.57.75-.86 1.82-.86 3.21s.29 2.46.86 3.21 1.39 1.13 2.44 1.13 1.87-.38 2.44-1.13c.57-.75.85-1.82.85-3.21s-.28-2.46-.85-3.21-1.38-1.12-2.44-1.12ZM159.03 200.81c1.17 1.46 1.75 3.2 1.75 5.19s-.58 3.77-1.75 5.21-2.94 2.16-5.32 2.16-4.15-.72-5.32-2.16c-1.17-1.44-1.75-3.18-1.75-5.21s.58-3.73 1.75-5.19 2.94-2.2 5.32-2.2 4.15.73 5.32 2.2Zm-5.33.86c-1.06 0-1.87.38-2.44 1.12-.57.75-.86 1.82-.86 3.21s.29 2.46.86 3.21 1.39 1.13 2.44 1.13 1.87-.38 2.44-1.13c.57-.75.85-1.82.85-3.21s-.28-2.46-.85-3.21-1.38-1.12-2.44-1.12ZM162.64 194.18h3.62v18.71h-3.62v-18.71ZM181.68 212.89h-4.37l-3.31-5.92-1.5 1.56v4.35h-3.55v-18.65h3.55v10.08l4.51-5.21h4.48l-4.84 5.29 5.03 8.48ZM186.36 194.07v3.34h-3.67v-3.34h3.67Zm0 4.99v13.84h-3.67v-13.84h3.67ZM195.39 210.32v2.7l-1.71.06c-1.71.06-2.88-.24-3.5-.89-.41-.42-.61-1.05-.61-1.92v-8.52h-1.93v-2.58h1.93v-3.86h3.58v3.86h2.25v2.58h-2.25v7.31c0 .57.07.92.22 1.06.14.14.58.21 1.32.21h.35c.12 0 .24 0 .36-.02Z"/></g></svg>
